<svg xmlns="http://www.w3.org/2000/svg" width="32" height="32" viewBox="0 0 24 24" fill="none" stroke="#2563eb" stroke-width="2" stroke-linecap="round" stroke-linejoin="round">
  <path d="M12 4.5a2.5 2.5 0 0 0-4.96.12A3.5 3.5 0 0 0 4.5 9.5c0 .35.05.69.15 1.01A2.5 2.5 0 0 0 4 15.5a2.5 2.5 0 0 0 4.96-.12A3.5 3.5 0 0 0 12 20.5a3.5 3.5 0 0 0 3.04-5.12 2.5 2.5 0 0 0 4.96.12 2.5 2.5 0 0 0-.15-1.01A3.5 3.5 0 0 0 19.5 9.5a3.5 3.5 0 0 0-3.04-4.88 2.5 2.5 0 0 0-4.46-.12Z"/>
  <path d="M12 8v8"/>
  <path d="M15 11h-6"/>
</svg>
